<?xml version="1.0" encoding="UTF-8"?>
<svg version="1.1" xmlns="http://www.w3.org/2000/svg" width="1310" height="864">
<path d="M0 0 C432.3 0 864.6 0 1310 0 C1310 285.12 1310 570.24 1310 864 C877.7 864 445.4 864 0 864 C0 578.88 0 293.76 0 0 Z " fill="#1D1D1D" transform="translate(0,0)"/>
<path d="M0 0 C1.47146484 -0.01160156 1.47146484 -0.01160156 2.97265625 -0.0234375 C11.97531605 0.00053763 19.65996713 1.77503642 28.0625 4.875 C29.28066406 5.32101562 30.49882813 5.76703125 31.75390625 6.2265625 C32.66011719 6.56429688 33.56632813 6.90203125 34.5 7.25 C34.5 7.91 34.5 8.57 34.5 9.25 C35.22574219 9.34152344 35.95148438 9.43304688 36.69921875 9.52734375 C47.48151144 12.3093858 57.39780003 25.29226915 62.90625 34.40625 C73.56024128 53.41631288 76.46064805 73.01701236 71.14257812 94.13720703 C68.06939712 104.24180749 62.36908946 113.31783717 55.5 121.25 C54.88382813 122.06339844 54.26765625 122.87679687 53.6328125 123.71484375 C42.6434155 136.77733213 24.19649437 144.80589488 7.39306641 146.45703125 C-12.57762596 147.74279668 -31.2492071 142.84152088 -46.75390625 129.828125 C-49.10208419 127.70583442 -51.34695493 125.57302231 -53.5 123.25 C-54.01949219 122.73566406 -54.53898438 122.22132813 -55.07421875 121.69140625 C-68.49626782 107.66611902 -73.94411482 88.06889431 -73.703125 69.05078125 C-72.78237361 51.8221062 -66.2582664 35.92199671 -54.5 23.25 C-53.98308594 22.64285156 -53.46617187 22.03570312 -52.93359375 21.41015625 C-39.58250096 6.65368527 -19.41271974 -0.15305692 0 0 Z " fill="#F8F8F8" transform="translate(652.5,321.75)"/>
<path d="M0 0 C3.1717267 0.059052 6.32635397 0.00045042 9.49755859 -0.06982422 C26.87924606 -0.13180915 26.87924606 -0.13180915 33.85693359 6.76611328 C35.49782622 8.62475321 37.10727182 10.51197331 38.67333984 12.43408203 C40.16760074 13.81751464 41.6832326 15.17896595 43.23583984 16.49658203 C43.83525391 17.02380859 44.43466797 17.55103516 45.05224609 18.09423828 C46.84488419 19.62248173 46.84488419 19.62248173 49.67333984 21.43408203 C49.90055139 24.0337959 49.94625971 26.41021886 49.86865234 29.00439453 C49.86167602 30.55647092 49.8565275 32.10855641 49.85302734 33.66064453 C49.83247956 36.10387337 49.79874168 38.54439124 49.73193359 40.98681641 C49.23205491 50.65481269 49.23205491 50.65481269 52.73486328 59.33544922 C54.95829584 61.31154341 57.10248279 62.94623657 59.67333984 64.43408203 C58.30278058 67.73120662 57.10297103 68.88883983 54.05615234 70.64501953 C51.18468667 73.01193827 50.71033004 74.15112691 50.21923828 77.90771484 C50.16067574 81.51965799 50.30804376 85.12661925 50.46261597 88.73495483 C51.15509655 107.50933839 51.15509655 107.50933839 47.02099609 113.09423828 C43.9463485 116.18299811 40.44158499 118.27831549 36.67333984 120.43408203 C35.05678877 121.79130632 33.46698077 123.1819752 31.92333984 124.62158203 C31.00294922 125.41628906 31.00294922 125.41628906 30.06396484 126.22705078 C29.24492018 126.93796314 28.44022658 127.66719529 27.67333984 128.43408203 C26.21287542 128.5634952 24.74632146 128.62517936 23.28051758 128.65869141 C21.87786903 128.69246887 21.87786903 128.69246887 20.44688416 128.72692871 C16.14118244 128.79786011 11.83566032 128.85552058 7.52954102 128.89404297 C5.26272384 128.92059142 2.99602609 128.96145128 0.72973633 129.01708984 C-2.5408608 129.09646979 -5.80914528 129.12940041 -9.08056641 129.15283203 C-10.08608047 129.18582397 -11.09159454 129.21881592 -12.12757874 129.25280762 C-17.56814432 129.23746652 -20.68120991 128.67457197 -24.85498047 125.04614258 C-26.03056694 123.86004209 -27.18986778 122.65741396 -28.32666016 121.43408203 C-29.24833984 120.60521484 -30.17001953 119.77634766 -31.11962891 118.92236328 C-32.72415084 117.46442084 -34.328314 116.00608346 -35.93212891 114.54736328 C-38.26496342 112.37603608 -38.26496342 112.37603608 -40.9519043 110.77368164 C-43.32666016 108.43408203 -43.32666016 108.43408203 -43.84326172 104.98583984 C-43.82362247 103.61912482 -43.78021058 102.25261395 -43.71728516 100.88720703 C-43.70449726 99.38721577 -43.69281381 97.88721475 -43.68212891 96.38720703 C-43.63658628 94.03857887 -43.57693229 91.69189072 -43.49511719 89.34423828 C-42.95286852 79.97333408 -42.95286852 79.97333408 -46.37939453 71.57275391 C-48.60531388 69.5943526 -50.7637911 67.94294058 -53.32666016 66.43408203 C-51.956491 63.13522268 -50.77510908 62.00143231 -47.71728516 60.26611328 C-44.7868861 57.85164022 -44.35612684 56.65315914 -43.84033203 52.81835938 C-43.71181735 47.45631085 -43.92400052 42.09175462 -44.19921875 36.73706055 C-44.80909273 23.37916466 -44.80909273 23.37916466 -41.25048828 18.70996094 C-38.52978516 16.51611328 -38.52978516 16.51611328 -35.45458984 14.54125977 C-32.56797076 12.59664461 -30.68756532 10.61030186 -28.45904541 7.97261047 C-20.68829849 -0.74109027 -11.0260284 -0.24433939 0 0 Z " fill="#FCFCFC" transform="translate(479.32666015625,520.56591796875)"/>
<path d="M0 0 C3.22793797 -0.23329086 6.45371232 -0.37467674 9.6875 -0.5 C10.59951172 -0.56703125 11.51152344 -0.6340625 12.45117188 -0.703125 C15.17159757 -0.78226466 17.37586927 -0.7342609 20 0 C22.40061589 2.34142946 23.64263939 4.96369833 25 8 C25.57363281 9.02222656 26.14726562 10.04445313 26.73828125 11.09765625 C27.51751953 12.56525391 27.51751953 12.56525391 28.3125 14.0625 C28.90691895 15.17778076 29.50133789 16.29306152 30.11376953 17.44213867 C30.42139221 18.02240814 30.72901489 18.60267761 31.04595947 19.20053101 C32.35355078 21.66685182 33.6675242 24.12975229 34.98123169 26.59281921 C35.65622615 27.85838034 36.33092826 29.12409743 37.00534058 30.38996887 C40.35242536 36.66996542 43.73398744 42.93112135 47.125 49.1875 C47.64449219 50.14720703 48.16398437 51.10691406 48.69921875 52.09570312 C49.19292969 53.00642578 49.68664062 53.91714844 50.1953125 54.85546875 C50.89575684 56.14783447 50.89575684 56.14783447 51.61035156 57.46630859 C53.40514593 60.73868666 55.2517504 63.98094362 57.11279297 67.21606445 C58 69 58 69 58 71 C58.66 71 59.32 71 60 71 C60.20882812 70.22527344 60.41765625 69.45054687 60.6328125 68.65234375 C62.51296175 63.62965933 65.18407281 59.19042746 67.875 54.5625 C71.93802673 47.4864295 75.90568864 40.38409167 79.64086914 33.12890625 C80.62864549 31.21282487 81.62782976 29.3025808 82.63842773 27.3984375 C85.51770503 21.97111475 88.14826344 16.53673356 90.47192383 10.84692383 C92.52182224 6.95235588 95.35497488 3.51761072 98 0 C104.93 0 111.86 0 119 0 C119 18.48 119 36.96 119 56 C120.32 56.66 121.64 57.32 123 58 C125.16849534 60.19833702 127.05069645 62.60767292 129 65 C128.36304703 65.43139282 127.72609406 65.86278564 127.06983948 66.30725098 C123.42600555 69.08341224 120.50413132 71.31937982 119.15670776 75.8112793 C118.86570053 79.10000613 118.83117234 82.29288992 118.90234375 85.59375 C118.88815147 87.37465027 118.88815147 87.37465027 118.87367249 89.19152832 C118.85316834 92.96230397 118.89442333 96.7294682 118.9375 100.5 C118.93442394 103.06511232 118.92730621 105.63022318 118.91601562 108.1953125 C118.89721388 114.46449102 118.93377546 120.73116639 119 127 C112.73 127 106.46 127 100 127 C99.67 96.97 99.34 66.94 99 36 C92.02626377 48.78518308 85.09278041 61.52480761 78.47460938 74.484375 C77.46372386 76.44809267 76.43899111 78.4047711 75.39770508 80.35253906 C74.50784165 82.03807251 73.66098789 83.74754633 72.8737793 85.48339844 C71.75368412 87.71914691 70.8509792 89.31580463 69 91 C65.50770433 91.94830158 62.27236521 91.76348126 58.6875 91.5 C57.75615234 91.46390625 56.82480469 91.4278125 55.86523438 91.390625 C53.57258193 91.29656746 51.28842909 91.16539029 49 91 C42.25377297 78.74941572 35.61106957 66.45375775 29.18652344 54.03100586 C25.87473766 47.63481582 22.45125777 41.3273059 19 35 C18.67 65.36 18.34 95.72 18 127 C12.06 127 6.12 127 0 127 C0.0220752 125.40607422 0.04415039 123.81214844 0.06689453 122.16992188 C0.13581501 116.23562515 0.13872784 110.3027868 0.12207031 104.36816406 C0.12401265 101.8036348 0.14367115 99.23905359 0.18164062 96.67480469 C0.23324224 92.97955562 0.22035786 89.28917897 0.1953125 85.59375 C0.22505157 84.4538562 0.25479065 83.3139624 0.28543091 82.13952637 C0.19737053 77.200596 0.08342634 74.20233514 -3.30621338 70.44067383 C-5.7916815 68.44063885 -8.27735104 66.65892481 -11 65 C-5.38635727 58.23811217 -5.38635727 58.23811217 -2.92767334 56.7228241 C-0.77827104 55.14351962 -0.77827104 55.14351962 -0.48101807 52.55122375 C-0.47213562 51.5808165 -0.46325317 50.61040924 -0.45410156 49.6105957 C-0.43438293 48.50968094 -0.41466431 47.40876617 -0.39434814 46.27449036 C-0.39250519 44.49312935 -0.39250519 44.49312935 -0.390625 42.67578125 C-0.37408875 41.45924362 -0.35755249 40.24270599 -0.34051514 38.98930359 C-0.29186174 35.09698526 -0.27062473 31.20505811 -0.25 27.3125 C-0.22185499 24.67641243 -0.19192966 22.04034321 -0.16015625 19.40429688 C-0.08609794 12.93626935 -0.03455719 6.46835262 0 0 Z " fill="#FCFCFC" transform="translate(268,522)"/>
<path d="M0 0 C6.6 0 13.2 0 20 0 C20.87140625 1.56105469 21.7428125 3.12210938 22.640625 4.73046875 C29.80551993 17.55329981 37.02262545 30.34344605 44.32958984 43.0859375 C47.27403904 48.22258551 50.21354519 53.36205788 53.15216064 58.50204468 C54.14437752 60.2370935 55.13735702 61.97170614 56.13037109 63.70629883 C61.12940476 72.44790747 66.06266315 81.22251226 71 90 C71.33 60.3 71.66 30.6 72 0 C77.94 0 83.88 0 90 0 C89.9779248 1.61898193 89.95584961 3.23796387 89.93310547 4.90600586 C89.86413519 10.93909147 89.86128059 16.97074364 89.87792969 23.00415039 C89.87598851 25.61034511 89.85635178 28.21659126 89.81835938 30.82250977 C89.7667026 34.5798229 89.77965959 38.33235219 89.8046875 42.08984375 C89.77494843 43.24645004 89.74520935 44.40305634 89.71456909 45.5947113 C89.80363034 50.68198011 90.0026767 53.78825944 93.30621338 57.80203247 C95.78118533 60.04131489 98.2750043 62.07593667 101 64 C99.33333333 65.66666667 97.66666667 67.33333333 96 69 C95.278125 69.763125 94.55625 70.52625 93.8125 71.3125 C92 73 92 73 90 73 C90 90.82 90 108.64 90 127 C83.73 127 77.46 127 71 127 C64.02664228 114.85409673 57.11973265 102.67350384 50.28686523 90.44799805 C44.22848104 79.61074843 38.11512587 68.80536804 32 58 C25.565 46.615 25.565 46.615 19 35 C18.67 65.36 18.34 95.72 18 127 C12.06 127 6.12 127 0 127 C0 109.18 0 91.36 0 73 C-1.32 72.34 -2.64 71.68 -4 71 C-5.28016835 69.99564028 -6.53128122 68.95309739 -7.75 67.875 C-8.36359375 67.33617187 -8.9771875 66.79734375 -9.609375 66.2421875 C-10.06828125 65.83226562 -10.5271875 65.42234375 -11 65 C-10.08877273 63.89134015 -9.17073341 62.78827781 -8.25 61.6875 C-7.48429688 60.76517578 -7.48429688 60.76517578 -6.703125 59.82421875 C-5 58 -5 58 -2.92767334 56.7228241 C-0.77827104 55.14351962 -0.77827104 55.14351962 -0.48101807 52.55122375 C-0.47213562 51.5808165 -0.46325317 50.61040924 -0.45410156 49.6105957 C-0.43438293 48.50968094 -0.41466431 47.40876617 -0.39434814 46.27449036 C-0.39250519 44.49312935 -0.39250519 44.49312935 -0.390625 42.67578125 C-0.37408875 41.45924362 -0.35755249 40.24270599 -0.34051514 38.98930359 C-0.29186174 35.09698526 -0.27062473 31.20505811 -0.25 27.3125 C-0.22185499 24.67641243 -0.19192966 22.04034321 -0.16015625 19.40429688 C-0.08609749 12.93623009 -0.03662838 6.4683827 0 0 Z " fill="#FDFDFD" transform="translate(948,522)"/>
<path d="M0 0 C1.96233683 -0.03649207 3.92443046 -0.09089269 5.88574219 -0.1640625 C24.26582216 -0.83933167 24.26582216 -0.83933167 30.60766602 4.87060547 C31.94703184 6.40967636 33.25697034 7.97508163 34.52954102 9.56982422 C35.94300101 10.8673428 37.37700053 12.14334077 38.84204102 13.38232422 C39.43629883 13.90439453 40.03055664 14.42646484 40.64282227 14.96435547 C42.56107217 16.70476327 42.56107217 16.70476327 45.24047852 18.06591797 C48.9436011 22.11660326 48.05938042 26.55017957 47.84204102 31.81982422 C47.81948242 32.85107422 47.79692383 33.88232422 47.77368164 34.94482422 C47.71483238 37.48711235 47.62515364 40.02865315 47.52954102 42.56982422 C41.58954102 42.56982422 35.64954102 42.56982422 29.52954102 42.56982422 C29.59464518 39.4773763 29.65974935 36.38492839 29.72485352 33.29248047 C27.78020692 27.23611378 23.94245502 23.78497192 18.52954102 20.56982422 C13.65868863 19.32381689 9.0975364 19.30542414 4.09204102 19.44482422 C2.84616211 19.41001953 1.6002832 19.37521484 0.31665039 19.33935547 C-8.20000437 19.4198278 -13.00167983 21.47930588 -19.44189453 27.01196289 C-22.62902683 31.03068777 -23.00676017 34.32189896 -22.52514648 39.35424805 C-20.71751811 44.86542243 -17.06345248 48.46965424 -12.27337646 51.67910767 C-7.13296438 54.21868598 -0.98328944 53.37726456 4.57772827 53.06427002 C24.76775599 52.02782476 24.76775599 52.02782476 31.2121582 57.55712891 C33.55051321 60.10185398 35.53443402 62.74312522 37.52954102 65.56982422 C39.02751931 66.99229466 40.56460737 68.37593374 42.15454102 69.69482422 C43.04012695 70.47212891 43.04012695 70.47212891 43.94360352 71.26513672 C45.70882365 72.76173788 45.70882365 72.76173788 48.52954102 74.56982422 C49.1883475 79.02371214 49.12954628 83.51121221 49.14038086 88.00805664 C49.15439049 90.23341328 49.22157545 92.45303134 49.29125977 94.67724609 C49.45103908 105.02308427 49.45103908 105.02308427 47.06542969 109.02734375 C45.3173171 110.78922468 43.58244682 112.18312853 41.52954102 113.56982422 C40.81926758 114.21951172 40.10899414 114.86919922 39.37719727 115.53857422 C38.7880957 116.04388672 38.19899414 116.54919922 37.59204102 117.06982422 C37.00551758 117.57513672 36.41899414 118.08044922 35.81469727 118.60107422 C35.0605957 119.25076172 34.30649414 119.90044922 33.52954102 120.56982422 C32.73541557 121.40555969 32.73541557 121.40555969 31.92524719 122.25817871 C27.41832353 126.73978976 24.22063213 128.38967853 17.86624146 128.59375 C16.93270844 128.58585449 15.99917542 128.57795898 15.03735352 128.56982422 C13.55838089 128.58698486 13.55838089 128.58698486 12.04953003 128.60449219 C9.97373353 128.61795659 7.89775241 128.61358132 5.82202148 128.59228516 C2.66770812 128.56991759 -0.47715711 128.63274581 -3.63061523 128.70263672 C-20.43504269 128.82385839 -20.43504269 128.82385839 -26.64624023 123.24560547 C-27.95558207 121.71596517 -29.23335924 120.15845876 -30.47045898 118.56982422 C-31.88264299 117.27091701 -33.31660251 115.99474989 -34.78295898 114.75732422 C-35.3772168 114.23525391 -35.97147461 113.71318359 -36.58374023 113.17529297 C-38.49471672 111.43161204 -38.49471672 111.43161204 -41.18139648 110.13623047 C-45.0041356 105.85032672 -43.99084458 100.83358985 -43.78295898 95.31982422 C-43.76040039 94.19318359 -43.7378418 93.06654297 -43.71459961 91.90576172 C-43.65571796 89.1265481 -43.56603904 86.34801785 -43.47045898 83.56982422 C-37.20045898 83.56982422 -30.93045898 83.56982422 -24.47045898 83.56982422 C-24.53233398 85.83857422 -24.59420898 88.10732422 -24.65795898 90.44482422 C-24.38671673 95.98746942 -23.35338016 100.13144862 -19.72045898 104.50732422 C-13.19561992 109.65805811 -5.99429048 109.59614328 2.09204102 109.75732422 C3.34662109 109.795271 4.60120117 109.83321777 5.89379883 109.87231445 C12.94144387 109.73520978 17.00078669 108.85731826 22.30688477 104.05810547 C23.72388398 102.57095632 25.13371578 101.07686479 26.52954102 99.56982422 C27.18954102 99.23982422 27.84954102 98.90982422 28.52954102 98.56982422 C28.85810972 96.28809708 29.08847585 93.99215533 29.27954102 91.69482422 C29.41875977 90.41865234 29.55797852 89.14248047 29.70141602 87.82763672 C29.09268383 82.83759519 25.66420614 79.84212735 21.93092346 76.75057983 C15.69816413 72.2723288 9.28195507 72.71622794 1.94769287 73.18963623 C-17.44048724 74.32119253 -17.44048724 74.32119253 -24.80908203 67.85595703 C-27.03429489 65.47534117 -29.06384333 63.03681752 -30.95654297 60.3840332 C-32.68038386 58.31825967 -34.55532167 57.09200438 -36.76342773 55.56591797 C-40.66619625 52.2491228 -41.17220733 49.49352639 -41.63842773 44.45654297 C-41.70135361 42.41613403 -41.71013408 40.38756684 -41.67822266 38.34643555 C-41.65803896 36.26556918 -41.73885312 34.20517633 -41.82788086 32.12646484 C-41.9132885 26.52895045 -41.6534963 22.11692095 -38.15307617 17.53930664 C-35.374643 14.99335365 -32.5355012 12.75837519 -29.47045898 10.56982422 C-28.313531 9.60991413 -27.16297229 8.64214554 -26.02514648 7.65966797 C-24.69870117 6.59425781 -24.69870117 6.59425781 -23.34545898 5.50732422 C-15.78290214 -0.58771097 -9.60974254 0.13879764 0 0 Z " fill="#FBFBFB" transform="translate(770.470458984375,521.43017578125)"/>
<path d="M0 0 C6.27 0 12.54 0 19 0 C19 18.15 19 36.3 19 55 C36.49 55 53.98 55 72 55 C72 36.85 72 18.7 72 0 C78.27 0 84.54 0 91 0 C91 18.48 91 36.96 91 56 C92.32 56.66 93.64 57.32 95 58 C97.0861722 59.57898354 99.01776069 61.28806605 101 63 C99.82598119 66.52205642 98.95269012 66.85264853 96 68.90649414 C92.38427928 71.99564527 91.38925527 74.01597572 91 78.75170898 C90.95961126 80.99947441 90.96188435 83.24828863 91 85.49609375 C90.98912354 86.68477554 90.97824707 87.87345734 90.96704102 89.09815979 C90.94093448 92.87886823 90.96969912 96.65686451 91 100.4375 C90.99190653 103.00717543 90.98022789 105.57684225 90.96484375 108.14648438 C90.93502693 114.43164747 90.95440338 120.71494985 91 127 C84.73 127 78.46 127 72 127 C72 109.18 72 91.36 72 73 C54.51 73 37.02 73 19 73 C19 90.82 19 108.64 19 127 C12.73 127 6.46 127 0 127 C0.01683838 125.40607422 0.03367676 123.81214844 0.05102539 122.16992188 C0.1017956 116.23561253 0.09325985 110.30259207 0.06713867 104.36816406 C0.06406336 101.80367973 0.07690496 99.23912353 0.10620117 96.67480469 C0.14561671 92.97977742 0.12710263 89.28879308 0.09765625 85.59375 C0.12223404 84.4538562 0.14681183 83.3139624 0.1721344 82.13952637 C0.08655745 77.35862456 0.0040193 74.23721403 -3.07693481 70.44067383 C-5.30137075 68.45182153 -7.53110303 66.67212413 -10 65 C-8.63680608 61.7608784 -7.35766607 60.41554838 -4.43139648 58.53857422 C-2.00508951 56.52237222 -1.1082668 55.43782672 -0.34329224 52.34429932 C-0.09386656 49.00698442 -0.05695597 45.72926424 -0.09765625 42.3828125 C-0.07921913 40.56437332 -0.07921913 40.56437332 -0.06040955 38.709198 C-0.02868328 34.84718262 -0.04495822 30.98707505 -0.0625 27.125 C-0.04939117 24.50258642 -0.03315143 21.88018649 -0.01367188 19.2578125 C0.02718133 12.83813459 0.02499556 6.41974563 0 0 Z " fill="#FBFBFB" transform="translate(585,522)"/>
<path d="M0 0 C9.24156548 8.03732049 15.64150503 17.83718017 21.125 28.6875 C21.125 29.3475 21.125 30.0075 21.125 30.6875 C22.115 30.3575 23.105 30.0275 24.125 29.6875 C27.16250536 29.46027902 30.2048543 29.50233523 33.25 29.5 C34.06726563 29.48775391 34.88453125 29.47550781 35.7265625 29.46289062 C49.28826803 29.43070303 59.93321938 33.80392108 69.80078125 43.17578125 C75.3292878 49.15028497 78.86671788 55.33853916 81.1875 63.125 C82.39299788 67.09544833 82.82378999 68.41903021 86 71.25 C87.03125 71.724375 88.0625 72.19875 89.125 72.6875 C102.26659085 78.8202424 110.92263913 88.48896342 116.21484375 101.92578125 C121.05979645 116.62698966 117.85374862 132.1616906 111.125 145.6875 C110.465 145.6875 109.805 145.6875 109.125 145.6875 C109.00125 146.450625 108.8775 147.21375 108.75 148 C108.125 150.6875 108.125 150.6875 106.125 153.6875 C103.28772675 153.95417539 100.67116955 154.03541234 97.8359375 153.98046875 C97.01751373 153.97622391 96.19908997 153.97197906 95.35586548 153.96760559 C92.73691164 153.95078679 90.11872198 153.91312974 87.5 153.875 C85.7265736 153.85995726 83.95313516 153.84626814 82.1796875 153.83398438 C77.8278297 153.80087292 73.47654449 153.74906952 69.125 153.6875 C69.785 155.6675 70.445 157.6475 71.125 159.6875 C65.04796849 159.1053306 59.8472951 156.65757935 54.3125 154.25 C53.34634766 153.84201172 52.38019531 153.43402344 51.38476562 153.01367188 C50.46759766 152.61857422 49.55042969 152.22347656 48.60546875 151.81640625 C47.76910889 151.45619385 46.93274902 151.09598145 46.07104492 150.72485352 C44.125 149.6875 44.125 149.6875 43.125 147.6875 C46.7892354 146.11635366 50.45543621 144.54989884 54.12353516 142.98779297 C55.37148273 142.45555615 56.6188826 141.92203322 57.86572266 141.38720703 C59.65643628 140.61935131 61.44928343 139.85647715 63.2421875 139.09375 C64.86036377 138.40249023 64.86036377 138.40249023 66.51123047 137.69726562 C69.125 136.6875 69.125 136.6875 71.125 136.6875 C70.25 141.4375 70.25 141.4375 69.125 143.6875 C79.355 143.6875 89.585 143.6875 100.125 143.6875 C100.785 142.0375 101.445 140.3875 102.125 138.6875 C103.09325339 136.69047739 104.10715292 134.72207872 105.125 132.75 C109.45747607 123.81426811 109.68349989 113.22015847 106.5625 103.75 C101.18613904 91.18629334 91.89777197 84.63834037 79.76171875 79.27734375 C76.10187406 77.07059295 74.64316972 74.59889428 73.53515625 70.51171875 C73.42042969 69.80660156 73.30570313 69.10148437 73.1875 68.375 C71.12301024 58.38286954 65.51088383 50.42478644 57.11328125 44.59765625 C43.76879212 36.57126611 31.11466438 38.17049489 16.125 40.6875 C15.79628906 39.74390625 15.46757813 38.8003125 15.12890625 37.828125 C9.47329155 22.29297911 0.1215185 9.34529668 -14.875 1.6875 C-14.875 1.0275 -14.875 0.3675 -14.875 -0.3125 C-16.050625 -0.43625 -16.050625 -0.43625 -17.25 -0.5625 C-20.40973121 -1.21623749 -22.91890574 -2.08004983 -25.875 -3.3125 C-39.18329892 -8.77028678 -55.03202329 -6.66478651 -68.375 -1.875 C-70.1075 -1.1015625 -70.1075 -1.1015625 -71.875 -0.3125 C-72.50148438 -0.04953125 -73.12796875 0.2134375 -73.7734375 0.484375 C-88.78157576 7.24693532 -98.00719055 20.21538679 -104.875 34.6875 C-105.4420754 36.26191186 -105.98884141 37.8440559 -106.5 39.4375 C-107.875 42.6875 -107.875 42.6875 -110.375 43.75 C-112.875 43.6875 -112.875 43.6875 -115.875 42.6875 C-134.77034894 41.134663 -150.3300436 44.01817831 -165.6015625 55.7890625 C-176.9245875 65.47007783 -186.63300314 79.81060943 -188.09399414 94.95800781 C-188.89431726 111.09813578 -186.68769714 124.4956475 -177.58203125 138.078125 C-175.875 140.6875 -175.875 140.6875 -174.875 143.6875 C-157.385 143.6875 -139.895 143.6875 -121.875 143.6875 C-121.875 146.9875 -121.875 150.2875 -121.875 153.6875 C-129.15039989 153.96680543 -136.42462747 154.17936659 -143.70432186 154.30924606 C-147.08582612 154.37162258 -150.46363897 154.45602133 -153.84301758 154.59277344 C-177.57507322 155.48387216 -177.57507322 155.48387216 -182.60083008 151.13867188 C-184.95023934 148.03938039 -186.44888856 145.29096784 -187.875 141.6875 C-188.79989368 140.01380477 -189.73492346 138.34559589 -190.6875 136.6875 C-198.25491762 120.47908648 -201.49974222 99.98066041 -196.03125 82.5625 C-187.37985916 61.05093359 -174.99076493 46.32293968 -153.25390625 36.90625 C-140.88637779 32.44536112 -127.80305375 31.27685539 -114.875 33.6875 C-114.69324219 33.09582031 -114.51148438 32.50414062 -114.32421875 31.89453125 C-111.61649491 23.38255836 -111.61649491 23.38255836 -108.875 19.6875 C-108.215 19.6875 -107.555 19.6875 -106.875 19.6875 C-106.77445313 19.11644531 -106.67390625 18.54539062 -106.5703125 17.95703125 C-105.21201322 13.52348136 -101.82373898 10.1831825 -98.875 6.6875 C-98.359375 6.07390625 -97.84375 5.4603125 -97.3125 4.828125 C-73.25645691 -21.39296197 -26.8246983 -20.90476488 0 0 Z " fill="#F5F5F5" transform="translate(692.875,246.3125)"/>
<path d="M0 0 C2.02454226 0.06151315 4.02946118 0.02075096 6.05395508 -0.03051758 C14.99099656 0.07949032 19.8551317 2.02068153 26.39550781 8.12646484 C27.07492432 8.82682861 27.75434082 9.52719238 28.4543457 10.2487793 C29.1143457 10.9087793 29.7743457 11.5687793 30.4543457 12.2487793 C30.78233337 14.99681091 30.78233337 14.99681091 30.88769531 18.54345703 C30.9194561 19.51225548 30.9194561 19.51225548 30.95185852 20.50062561 C31.15764529 27.28094304 31.24276607 34.06533506 31.31933594 40.84814453 C31.35928076 44.05936832 31.43558117 47.26647739 31.54492188 50.47607422 C31.67710427 54.36281802 31.74375846 58.24575082 31.76562691 62.1346302 C31.7844549 63.60806833 31.82539799 65.08141336 31.88996696 66.55355644 C32.15282192 72.88518569 32.20807629 78.6962798 27.73747253 83.62811279 C20.92473762 90.04459997 15.38648218 92.64918095 5.87817383 92.75268555 C4.56268555 92.71014648 3.24719727 92.66760742 1.8918457 92.6237793 C0.55905131 92.66311778 -0.77364119 92.70607773 -2.10620117 92.75268555 C-10.49795526 92.66124494 -15.37559551 90.81581884 -21.50741577 85.18267155 C-26.2443982 80.33608144 -27.12914311 75.41715279 -27.2130127 68.73887634 C-27.19153031 67.3033263 -27.16691751 65.86782017 -27.1394043 64.43237305 C-27.14751144 62.92503111 -27.15917726 61.41770459 -27.17419434 59.91041565 C-27.19177744 56.76816814 -27.16656237 53.63004435 -27.11010742 50.48828125 C-27.04163323 46.48539387 -27.08116219 42.49214371 -27.15297699 38.48960781 C-27.19660889 35.38227794 -27.18242817 32.27718853 -27.15144348 29.16978645 C-27.14351311 27.69597249 -27.15299933 26.22194618 -27.18119812 24.74838066 C-27.2720809 18.66760905 -27.31369077 12.83832081 -23.03358459 8.09944153 C-15.87644991 1.39822957 -9.69627474 -0.33589866 0 0 Z " fill="#181818" transform="translate(480.545654296875,539.751220703125)"/>
<path d="M0 0 C6.27 0 12.54 0 19 0 C19 18.48 19 36.96 19 56 C20.32 56.66 21.64 57.32 23 58 C25.0861722 59.57898354 27.01776069 61.28806605 29 63 C27.63681721 66.23759594 26.35280256 67.59191732 23.43139648 69.47509766 C21.0255253 71.47400614 20.11213909 72.55314247 19.34329224 75.61688232 C19.09403091 78.89452478 19.05691968 82.11150973 19.09765625 85.3984375 C19.07921913 87.18358261 19.07921913 87.18358261 19.06040955 89.00479126 C19.02868738 92.79548867 19.04495687 96.58424187 19.0625 100.375 C19.04939091 102.94923683 19.03315104 105.52345975 19.01367188 108.09765625 C18.9728223 114.39885225 18.97500251 120.69873504 19 127 C12.73 127 6.46 127 0 127 C0.01683838 125.40607422 0.03367676 123.81214844 0.05102539 122.16992188 C0.1017956 116.23561253 0.09325985 110.30259207 0.06713867 104.36816406 C0.06406336 101.80367973 0.07690496 99.23912353 0.10620117 96.67480469 C0.14561671 92.97977742 0.12710263 89.28879308 0.09765625 85.59375 C0.12223404 84.4538562 0.14681183 83.3139624 0.1721344 82.13952637 C0.08655745 77.35862456 0.0040193 74.23721403 -3.07693481 70.44067383 C-5.30137075 68.45182153 -7.53110303 66.67212413 -10 65 C-8.91720359 61.75161077 -8.10963155 60.95717417 -5.5625 58.8125 C-4.94503906 58.28269531 -4.32757812 57.75289062 -3.69140625 57.20703125 C-2 56 -2 56 0 56 C0 37.52 0 19.04 0 0 Z " fill="#FBFBFB" transform="translate(870,522)"/>
<path d="M0 0 C9.57 0 19.14 0 29 0 C29 10.23076923 29 10.23076923 28.125 15.3125 C27.96257813 16.29863281 27.80015625 17.28476562 27.6328125 18.30078125 C27 21 27 21 25 25 C16.75 25 8.5 25 0 25 C0 16.75 0 8.5 0 0 Z " fill="#242424" transform="translate(657,400)"/>
<path d="M0 0 C8.58 0 17.16 0 26 0 C26.495 2.64 26.99 5.28 27.5 8 C27.65662109 8.8146875 27.81324219 9.629375 27.97460938 10.46875 C28.09642578 11.1390625 28.21824219 11.809375 28.34375 12.5 C28.46943359 13.1703125 28.59511719 13.840625 28.72460938 14.53125 C29.11160889 18.00052224 29 21.50920947 29 25 C19.43 25 9.86 25 0 25 C0 16.75 0 8.5 0 0 Z " fill="#242424" transform="translate(657,365)"/>
<path d="M0 0 C8.25 0 16.5 0 25 0 C25 8.25 25 16.5 25 25 C15.43 25 5.86 25 -4 25 C-3.566875 20.7615625 -3.566875 20.7615625 -3.125 16.4375 C-2.99569092 15.1235022 -2.99569092 15.1235022 -2.86376953 13.78295898 C-2.78755371 13.06954346 -2.71133789 12.35612793 -2.6328125 11.62109375 C-2.55949707 10.9036499 -2.48618164 10.18620605 -2.41064453 9.44702148 C-1.87278441 6.24192519 -0.89281982 3.12486936 0 0 Z " fill="#202020" transform="translate(623,365)"/>
<path d="M0 0 C9.24 0 18.48 0 28 0 C28 8.25 28 16.5 28 25 C19.75 25 11.5 25 3 25 C0.44077297 16.04270538 0 9.43465528 0 0 Z " fill="#202020" transform="translate(620,400)"/>
<path d="M0 0 C5.61 0 11.22 0 17 0 C21.34697375 9.15152369 24 15.72438126 24 26 C17.07 26 10.14 26 3 26 C2.0625 17.5 2.0625 17.5 1.77368164 14.87304688 C1.69496826 14.16212891 1.61625488 13.45121094 1.53515625 12.71875 C1.456604 12.00654297 1.37805176 11.29433594 1.29711914 10.56054688 C0.88831973 7.03754917 0.43990611 3.51924885 0 0 Z " fill="#282828" transform="translate(692,364)"/>
<path d="M0 0 C6.93 0 13.86 0 21 0 C21.495 3.196875 21.99 6.39375 22.5 9.6875 C22.65662109 10.68612061 22.81324219 11.68474121 22.97460938 12.71362305 C23.09642578 13.51324463 23.21824219 14.31286621 23.34375 15.13671875 C23.46943359 15.94842529 23.59511719 16.76013184 23.72460938 17.59643555 C24 20 24 20 24 25 C18.39 25 12.78 25 7 25 C3.12278455 16.5313452 1.10582367 9.24870707 0 0 Z " fill="#202020" transform="translate(589,400)"/>
<path d="M0 0 C5.61 0 11.22 0 17 0 C16.31927525 8.39560526 15.23748205 16.66762086 14 25 C7.07 25 0.14 25 -7 25 C-5.80190681 15.95984232 -3.48318262 8.43296845 0 0 Z " fill="#202020" transform="translate(596,365)"/>
<path d="M0 0 C6.93 0 13.86 0 21 0 C21 6.60758382 20.96043123 9.10716616 18.625 14.75 C18.18414063 15.83796875 17.74328125 16.9259375 17.2890625 18.046875 C16.26334594 20.39669838 15.14662674 22.70674652 14 25 C8.39 25 2.78 25 -3 25 C-2.690625 23.47375 -2.38125 21.9475 -2.0625 20.375 C-0.81800499 13.60530021 -0.40791976 6.86664925 0 0 Z " fill="#242424" transform="translate(695,400)"/>
<path d="M0 0 C10.09556229 3.36518743 15.20853707 9.34886075 20.00390625 18.6796875 C21 21 21 21 21 23 C14.07 23 7.14 23 0 23 C0 15.41 0 7.82 0 0 Z " fill="#262626" transform="translate(657,332)"/>
<path d="M0 0 C6.93 0 13.86 0 21 0 C17.02578495 9.27316844 13.01227525 16.89182779 4 22 C2.68 22.33 1.36 22.66 0 23 C0 15.41 0 7.82 0 0 Z " fill="#242424" transform="translate(657,435)"/>
<path d="M0 0 C6.93 0 13.86 0 21 0 C21 7.59 21 15.18 21 23 C11.28464168 20.22418334 7.05530293 14.46795074 2 6 C1.34 4.02 0.68 2.04 0 0 Z " fill="#212121" transform="translate(627,435)"/>
<path d="M0 0 C0 7.59 0 15.18 0 23 C-6.93 23 -13.86 23 -21 23 C-10.68965517 0 -10.68965517 0 0 0 Z " fill="#212121" transform="translate(648,332)"/>
<path d="M0 0 C4.29 0 8.58 0 13 0 C14.31537364 2.43598808 15.62739143 4.8736825 16.9375 7.3125 C17.31068359 8.00279297 17.68386719 8.69308594 18.06835938 9.40429688 C18.60493164 10.40493164 18.60493164 10.40493164 19.15234375 11.42578125 C19.48226318 12.03848877 19.81218262 12.65119629 20.15209961 13.2824707 C21 15 21 15 22 18 C15.04887107 16.57571523 9.72404682 12.10707764 5 7 C4.071875 6.113125 3.14375 5.22625 2.1875 4.3125 C0 2 0 2 0 0 Z " fill="#323232" transform="translate(603,434)"/>
<path d="M0 0 C4.29 0 8.58 0 13 0 C8.88816877 8.22366247 1.37205481 14.2808158 -7 18 C-7.66 17.67 -8.32 17.34 -9 17 C-8.34 15.68 -7.68 14.36 -7 13 C-6.34 13 -5.68 13 -5 13 C-4.5978125 11.7315625 -4.5978125 11.7315625 -4.1875 10.4375 C-2.9521405 6.86145933 -1.523012 3.46139092 0 0 Z " fill="#2E2E2E" transform="translate(689,434)"/>
<path d="M0 0 C1.32 0.33 2.64 0.66 4 1 C4 1.66 4 2.32 4 3 C4.68578125 3.2165625 5.3715625 3.433125 6.078125 3.65625 C9.85199758 5.39182776 12.63322967 7.78946041 15.75 10.5 C16.33910156 10.99886719 16.92820312 11.49773437 17.53515625 12.01171875 C21.86012953 15.72025905 21.86012953 15.72025905 23 18 C18.38 18 13.76 18 9 18 C7.68462636 15.56401192 6.37260857 13.1263175 5.0625 10.6875 C4.68931641 9.99720703 4.31613281 9.30691406 3.93164062 8.59570312 C3.57392578 7.92861328 3.21621094 7.26152344 2.84765625 6.57421875 C2.51773682 5.96151123 2.18781738 5.34880371 1.84790039 4.7175293 C1 3 1 3 0 0 Z " fill="#2C2C2C" transform="translate(680,337)"/>
<path d="M0 0 C0.66 0.33 1.32 0.66 2 1 C1.11054687 2.04220703 1.11054687 2.04220703 0.203125 3.10546875 C-2.05115806 6.06721298 -3.63209023 8.96636844 -5.25 12.3125 C-6.1575 14.189375 -7.065 16.06625 -8 18 C-12.29 18 -16.58 18 -21 18 C-15.14542726 10.86027715 -8.52913301 3.94104767 0 0 Z " fill="#242424" transform="translate(624,337)"/>
<path d="M0 0 C0.33 0 0.66 0 1 0 C1 30.69 1 61.38 1 93 C0.67 93 0.34 93 0 93 C-0.33 64.29 -0.66 35.58 -1 6 C-1.99 6.495 -1.99 6.495 -3 7 C-1.125 2.25 -1.125 2.25 0 0 Z " fill="#242424" transform="translate(367,556)"/>
<path d="M0 0 C0.33 0 0.66 0 1 0 C1 1.98 1 3.96 1 6 C-0.98 6 -2.96 6 -5 6 C-3.35830472 3.97945196 -1.69088222 1.97956942 0 0 Z " fill="#F3F3F3" transform="translate(1309,858)"/>
<path d="M0 0 C0.33 0 0.66 0 1 0 C1 2.97 1 5.94 1 9 C0.34 8.01 -0.32 7.02 -1 6 C-1.99 6.495 -1.99 6.495 -3 7 C-1.125 2.25 -1.125 2.25 0 0 Z " fill="#2B2B2B" transform="translate(367,556)"/>
</svg>
