<?xml version="1.0" encoding="UTF-8"?>
<svg version="1.1" xmlns="http://www.w3.org/2000/svg" width="641" height="488">
<path d="M0 0 C211.53 0 423.06 0 641 0 C641 161.04 641 322.08 641 488 C429.47 488 217.94 488 0 488 C0 326.96 0 165.92 0 0 Z " fill="#1D1D1D" transform="translate(0,0)"/>
<path d="M0 0 C0 1.32 0 2.64 0 4 C1.0725 4.04125 2.145 4.0825 3.25 4.125 C13.02877123 5.40349659 20.82972578 11.1809538 27.74609375 17.8515625 C29.97767437 20.04936359 29.97767437 20.04936359 32.52734375 21.97265625 C37.04857781 25.67963963 40.42563747 30.40497349 44 35 C44.66273926 35.84232178 44.66273926 35.84232178 45.33886719 36.70166016 C58.94770506 54.11225523 68.09779566 73.48762958 73.8125 94.8125 C74.0074707 95.54001465 74.20244141 96.2675293 74.40332031 97.01708984 C77.43029578 108.98885789 78.37543608 120.81268678 78.3125 133.125 C78.31100952 133.84789215 78.30951904 134.5707843 78.3079834 135.31558228 C78.26563575 146.76382777 77.60449121 157.82250998 75 169 C74.59974609 170.8253125 74.59974609 170.8253125 74.19140625 172.6875 C71.81562379 182.14839371 67.62823763 190.48090497 63 199 C62.43152344 200.06347656 61.86304688 201.12695312 61.27734375 202.22265625 C57.22885664 209.4869629 52.43886733 215.97758596 47.24658203 222.44482422 C46.06881448 223.91415037 44.90693344 225.39616994 43.74609375 226.87890625 C19.57306698 257.27897391 -12.91321948 271.91445048 -50.45703125 278.6171875 C-87.69658717 282.64086609 -127.39750043 273.29085552 -157 250 C-158.31871094 248.98679687 -158.31871094 248.98679687 -159.6640625 247.953125 C-190.8621199 223.31834769 -210.40425982 188.49182053 -215.55078125 149.03515625 C-217.53216715 130.23180409 -217.24213227 110.21581122 -212 92 C-211.78569336 91.2359082 -211.57138672 90.47181641 -211.35058594 89.68457031 C-204.65911589 66.41539718 -192.30565986 46.7324051 -176 29 C-175.51273438 28.46745605 -175.02546875 27.93491211 -174.5234375 27.38623047 C-135.69873353 -14.5397784 -50.17054388 -33.44702925 0 0 Z " fill="#F5F5F5" transform="translate(391,202)"/>
<path d="M0 0 C16.13278941 14.32232224 37.53485757 38.26964018 42 60 C43.485 59.505 43.485 59.505 45 59 C47.8959583 58.86632053 50.76682357 58.78756587 53.6640625 58.76171875 C54.52953705 58.753647 55.3950116 58.74557526 56.28671265 58.73725891 C58.12764488 58.72341553 59.96860281 58.71269451 61.80957031 58.70483398 C63.66153678 58.69343183 65.51347357 58.67317233 67.36523438 58.64331055 C95.17103927 58.19539486 117.84137787 65.89158127 138.44140625 85.35546875 C150.3263613 97.63961313 157.19671435 112.4822647 162.47900391 128.52954102 C164.70758089 135.05191714 167.5567577 139.87772799 173.8125 143.23046875 C175.20141721 143.89741107 176.59748802 144.54964169 178 145.1875 C179.39666652 145.84589169 180.79251999 146.50601125 182.1875 147.16796875 C182.84105469 147.47782715 183.49460937 147.78768555 184.16796875 148.10693359 C186.55422763 149.2701712 188.81695013 150.48636191 191 152 C191 152.66 191 153.32 191 154 C191.56074219 154.09023437 192.12148438 154.18046875 192.69921875 154.2734375 C207.47281876 158.93878487 219.44248525 178.23717596 226.24829102 191.21630859 C238.58665628 215.83045548 238.77688349 243.47798203 230.48071289 269.37011719 C228.01614199 276.76448518 225.27220248 283.92283658 222 291 C220.35 291 218.7 291 217 291 C216.896875 292.010625 216.79375 293.02125 216.6875 294.0625 C215.84683955 298.87719168 214.18366035 302.63267931 212 307 C207.51184528 307.87551771 203.14562959 308.12802348 198.58203125 308.1328125 C196.72481445 308.13571289 196.72481445 308.13571289 194.83007812 308.13867188 C193.49088401 308.13454823 192.1516912 308.1299796 190.8125 308.125 C190.13034424 308.12411377 189.44818848 308.12322754 188.74536133 308.12231445 C171.48951888 308.09636582 154.24521827 307.56600926 137 307 C138.32 310.96 139.64 314.92 141 319 C134.25292508 318.52102273 128.59545654 317.52204003 122.3125 315.0625 C121.52157959 314.76037598 120.73065918 314.45825195 119.91577148 314.14697266 C117.26772118 313.12031871 114.63288932 312.06492128 112 311 C110.99388672 310.59475098 109.98777344 310.18950195 108.95117188 309.77197266 C105.81217224 308.4945067 102.68576175 307.19043392 99.5625 305.875 C98.57354736 305.46773682 97.58459473 305.06047363 96.56567383 304.64086914 C91.54914764 302.47997772 87.95345209 300.83918389 85 296 C87.23347434 293.50794321 89.27641317 292.23982272 92.34448242 290.93115234 C93.21936813 290.55421234 94.09425385 290.17727234 94.99565125 289.78890991 C96.41126091 289.19343857 96.41126091 289.19343857 97.85546875 288.5859375 C98.83107254 288.17082916 99.80667633 287.75572083 100.81184387 287.32803345 C102.87730194 286.45194845 104.94438124 285.57967733 107.01293945 284.7109375 C110.1633106 283.38517953 113.30540184 282.04108611 116.44726562 280.6953125 C118.4578562 279.84522479 120.46890965 278.99623085 122.48046875 278.1484375 C123.41408737 277.74740814 124.34770599 277.34637878 125.30961609 276.93319702 C130.62089288 274.72295013 135.25406642 273.4138113 141 273 C140.88437394 274.39664108 140.757008 275.79231199 140.625 277.1875 C140.52058594 278.35345703 140.52058594 278.35345703 140.4140625 279.54296875 C140 282 140 282 138 287 C158.13 287 178.26 287 199 287 C199.99 284.03 200.98 281.06 202 278 C202.68310495 276.36227675 203.39509578 274.73575169 204.15625 273.1328125 C204.5378125 272.31506348 204.919375 271.49731445 205.3125 270.65478516 C205.9003125 269.4025415 205.9003125 269.4025415 206.5 268.125 C209.67461223 261.21996402 212.56536379 254.50622161 214 247 C214.17917969 246.08605469 214.35835937 245.17210937 214.54296875 244.23046875 C217.15201348 225.78875938 214.08998929 207.66448825 203.15234375 192.42578125 C201.18188719 189.86771339 199.13254618 187.42424381 197 185 C196.33355469 184.23816406 195.66710937 183.47632813 194.98046875 182.69140625 C186.01799904 173.09707411 174.48538073 166.98835914 162.86132812 161.18164062 C154.34870096 156.85634961 149.35956559 152.08609784 146 143 C145.15987469 139.95418735 144.42854715 136.88368473 143.6875 133.8125 C139.04351291 114.98766783 128.34421259 99.75150268 112 89 C98.45289396 81.47382998 83.86222245 77.81801609 68.4375 77.75 C67.63683105 77.74605225 66.83616211 77.74210449 66.01123047 77.73803711 C58.1346508 77.811066 50.43063233 78.82165307 42.65405273 80.02050781 C41.72923096 80.1594043 40.80440918 80.29830078 39.8515625 80.44140625 C39.03510254 80.57232666 38.21864258 80.70324707 37.37744141 80.83813477 C34.67042865 81.02243847 32.58979025 80.81714538 30 80 C28.8149853 77.60502292 28.02002566 75.52831005 27.25 73 C17.19959322 43.5343372 -3.10497668 18.19220485 -31 4 C-31 2.35 -31 0.7 -31 -1 C-31.87507202 -1.03975952 -31.87507202 -1.03975952 -32.76782227 -1.08032227 C-39.96062367 -1.58253986 -46.18121812 -3.50454955 -52.9375 -5.9375 C-75.96827994 -14.17435604 -100.40954082 -14.52502062 -124 -8 C-124.74330566 -7.80164551 -125.48661133 -7.60329102 -126.25244141 -7.39892578 C-143.06779293 -2.78287493 -160.10341197 5.13874016 -173 17 C-173.93457031 17.77214844 -174.86914062 18.54429688 -175.83203125 19.33984375 C-194.38001741 34.93660453 -207.07139411 59.40466313 -214.9453125 81.9765625 C-216.26112356 84.50097039 -217.54945635 85.57088954 -220 87 C-224.61314243 87.849549 -229.22443416 87.0000853 -233.75 86 C-265.01937809 79.86015016 -300.0855808 89.6375761 -326.1171875 107.08984375 C-341.83579062 118.37865872 -354.0578916 132.86137104 -363.2578125 149.80859375 C-364.26863178 151.66025149 -365.31078 153.49673852 -366.4296875 155.28515625 C-374.48329172 168.26596554 -377.39169451 185.61385963 -377.25 200.625 C-377.24250732 201.67969482 -377.23501465 202.73438965 -377.22729492 203.82104492 C-376.86513632 230.32741311 -370.04185226 255.1173281 -354.8828125 276.984375 C-353 280 -353 280 -351 286 C-298.53 286.495 -298.53 286.495 -245 287 C-245 293.6 -245 300.2 -245 307 C-254.63471601 307.74062519 -264.23145877 308.24619878 -273.890625 308.53515625 C-275.2880697 308.57843498 -276.6855102 308.62184959 -278.08294678 308.66539001 C-280.99730025 308.7554944 -283.91170854 308.84345659 -286.82617188 308.92993164 C-289.75401165 309.01699384 -292.68172748 309.10713682 -295.609375 309.20043945 C-310.27326703 309.66744674 -324.93753837 310.08708758 -339.609375 310.18359375 C-341.17392426 310.20342064 -341.17392426 310.20342064 -342.77008057 310.22364807 C-351.19775364 310.23686675 -358.34755355 309.39511729 -365.06640625 303.93359375 C-372.82909217 296.17090783 -377.40100683 284.85529838 -382 275 C-382.34208496 274.26749023 -382.68416992 273.53498047 -383.03662109 272.78027344 C-390.40453014 256.75463786 -395.98216018 239.58403273 -398 222 C-398.10957031 221.10410156 -398.21914063 220.20820313 -398.33203125 219.28515625 C-402.18659333 181.8188128 -391.44478261 147.57221008 -368 118 C-364.23104397 113.43677043 -360.19365334 109.17251997 -356 105 C-355.48711426 104.48453613 -354.97422852 103.96907227 -354.44580078 103.43798828 C-328.76806466 77.88828076 -294.80051049 64.81072673 -258.79174805 64.81469727 C-256.57125732 64.81250863 -254.35126275 64.79429708 -252.13085938 64.77539062 C-244.8417233 64.74750048 -238.0649227 64.98486421 -231 67 C-230.84144531 66.27296875 -230.68289062 65.5459375 -230.51953125 64.796875 C-225.78026521 44.3735186 -225.78026521 44.3735186 -219 39 C-217.68 39 -216.36 39 -215 39 C-214.95875 38.21625 -214.9175 37.4325 -214.875 36.625 C-210.92802976 20.27326613 -191.55534372 1.71137941 -177.796875 -7.29296875 C-176.87390625 -7.85628906 -175.9509375 -8.41960938 -175 -9 C-174.43861328 -9.34627441 -173.87722656 -9.69254883 -173.29882812 -10.04931641 C-122.3206724 -41.16217494 -46.61664171 -39.17949038 0 0 Z " fill="#F1F1F1" transform="translate(404,37)"/>
<path d="M0 0 C19.14 0 38.28 0 58 0 C58 34 58 34 50 50 C33.5 50 17 50 0 50 C0 33.5 0 17 0 0 Z " fill="#242424" transform="translate(331,344)"/>
<path d="M0 0 C17.16 0 34.32 0 52 0 C53.47320493 5.89281973 54.89362931 11.74499624 56.125 17.6875 C56.30675781 18.47705078 56.48851562 19.26660156 56.67578125 20.08007812 C58.75107166 30.29269146 58 39.04663596 58 50 C38.86 50 19.72 50 0 50 C0 33.5 0 17 0 0 Z " fill="#242424" transform="translate(331,274)"/>
<path d="M0 0 C16.5 0 33 0 50 0 C50 16.5 50 33 50 50 C30.86 50 11.72 50 -8 50 C-7.608125 44.905625 -7.21625 39.81125 -6.8125 34.5625 C-6.70139893 32.99443604 -6.59029785 31.42637207 -6.47583008 29.81079102 C-6.31183716 27.86450806 -6.31183716 27.86450806 -6.14453125 25.87890625 C-6.04503174 24.5854126 -5.94553223 23.29191895 -5.84301758 21.95922852 C-4.57365146 14.49191487 -2.13725044 7.2666515 0 0 Z " fill="#202020" transform="translate(263,274)"/>
<path d="M0 0 C18.48 0 36.96 0 56 0 C56 16.5 56 33 56 50 C39.5 50 23 50 6 50 C1.1545309 31.82949088 0 19.05368843 0 0 Z " fill="#202020" transform="translate(257,344)"/>
<path d="M0 0 C11.22 0 22.44 0 34 0 C41.00174635 14.0034927 41.00174635 14.0034927 43.25 21.0625 C43.49959473 21.83343994 43.74918945 22.60437988 44.00634766 23.39868164 C47.10004826 33.18582009 48 41.52738571 48 52 C34.14 52 20.28 52 6 52 C3.69727093 37.03226107 3.69727093 37.03226107 2.9296875 29.9609375 C2.84373322 29.18738922 2.75777893 28.41384094 2.66921997 27.61685181 C2.49154053 26.01245421 2.31517579 24.40791046 2.14013672 22.80322266 C1.87158086 20.34368621 1.59819111 17.88471968 1.32421875 15.42578125 C1.15076195 13.85419751 0.97757462 12.28258401 0.8046875 10.7109375 C0.72346649 9.97974701 0.64224548 9.24855652 0.55856323 8.49520874 C0.2492821 5.64483899 0 2.86974954 0 0 Z " fill="#292929" transform="translate(401,272)"/>
<path d="M0 0 C13.86 0 27.72 0 42 0 C42.99 5.65125 43.98 11.3025 45 17.125 C45.31324219 18.87699707 45.62648437 20.62899414 45.94921875 22.43408203 C46.19623487 23.87516772 46.44238166 25.3164028 46.6875 26.7578125 C46.81705078 27.46349365 46.94660156 28.1691748 47.08007812 28.89624023 C48.29082843 36.14392611 48 42.33568073 48 50 C36.78 50 25.56 50 14 50 C7.05461308 34.95166166 7.05461308 34.95166166 5.3125 28.125 C5.11245361 27.37395996 4.91240723 26.62291992 4.70629883 25.84912109 C0 7.81052559 0 7.81052559 0 0 Z " fill="#202020" transform="translate(195,344)"/>
<path d="M0 0 C13.86 0 27.72 0 42 0 C42 20.42179328 36.60735857 32.39987874 28 50 C16.78 50 5.56 50 -6 50 C-5.38125 46.019375 -4.7625 42.03875 -4.125 37.9375 C-2.20923389 25.30769186 -0.9734701 12.73623384 0 0 Z " fill="#242424" transform="translate(407,344)"/>
<path d="M0 0 C11.22 0 22.44 0 34 0 C33.566875 4.5375 33.13375 9.075 32.6875 13.75 C32.55819092 15.13413086 32.42888184 16.51826172 32.2956543 17.94433594 C31.23971316 28.73443209 29.61555515 39.22963235 28 50 C14.14 50 0.28 50 -14 50 C-10.49782609 30.15434783 -10.49782609 30.15434783 -8.125 21.625 C-7.89425781 20.74457031 -7.66351563 19.86414063 -7.42578125 18.95703125 C-5.55244463 12.11484456 -3.01687681 6.63712897 0 0 Z " fill="#202020" transform="translate(209,274)"/>
<path d="M0 0 C0 15.18 0 30.36 0 46 C-13.53 46 -27.06 46 -41 46 C-39.74592997 39.72964987 -37.08858674 34.43774585 -34.32763672 28.72705078 C-33.38723896 26.77540008 -32.46472024 24.81598037 -31.54296875 22.85546875 C-23.44320057 5.87501214 -23.44320057 5.87501214 -15.8125 0.9375 C-12 0 -12 0 0 0 Z " fill="#212121" transform="translate(313,208)"/>
<path d="M0 0 C17.84624742 5.94874914 28.90228687 17.03572538 38 33 C38.47566406 33.82242188 38.95132813 34.64484375 39.44140625 35.4921875 C41.56933036 39.42180346 42 41.37663545 42 46 C28.14 46 14.28 46 0 46 C0 30.82 0 15.64 0 0 Z " fill="#262626" transform="translate(331,208)"/>
<path d="M0 0 C13.86 0 27.72 0 42 0 C42 15.18 42 30.36 42 46 C23.87799098 39.95933033 12.46623239 28.34926393 3.5625 11.6875 C2 8 2 8 0 0 Z " fill="#222222" transform="translate(271,414)"/>
<path d="M0 0 C13.53 0 27.06 0 41 0 C38.20065206 13.99673968 29.2290895 26.36891881 19 36 C17.99066406 36.96679688 17.99066406 36.96679688 16.9609375 37.953125 C11.70230237 42.72527847 7.11232773 44.81461204 0 46 C0 30.82 0 15.64 0 0 Z " fill="#242424" transform="translate(331,414)"/>
<path d="M0 0 C8.58 0 17.16 0 26 0 C42.81535649 29.94515539 42.81535649 29.94515539 44 36 C32.17275777 34.70975539 22.15611691 26.0724031 14 18 C12.75869671 16.81808109 11.51643939 15.63716365 10.2734375 14.45703125 C8.97253947 13.20198988 7.67305605 11.94548053 6.375 10.6875 C5.7459375 10.08856934 5.116875 9.48963867 4.46875 8.87255859 C3.88867188 8.29973145 3.30859375 7.7269043 2.7109375 7.13671875 C2.18806152 6.62842529 1.66518555 6.12013184 1.12646484 5.59643555 C0 4 0 4 0 0 Z " fill="#333333" transform="translate(223,412)"/>
<path d="M0 0 C8.25 0 16.5 0 25 0 C19.8485875 15.45423751 5.49030449 26.35490905 -8.625 33.4375 C-10.41274261 34.2998494 -12.20301312 35.15708347 -14 36 C-14.99 35.34 -15.98 34.68 -17 34 C-15.125 28.25 -15.125 28.25 -14 26 C-13.3620752 25.88760986 -12.72415039 25.77521973 -12.06689453 25.65942383 C-9.81874864 25.1960571 -9.81874864 25.1960571 -8.84326172 23.0222168 C-8.54178223 22.17312744 -8.24030273 21.32403809 -7.9296875 20.44921875 C-7.59066406 19.52302734 -7.25164062 18.59683594 -6.90234375 17.64257812 C-6.56332031 16.66740234 -6.22429687 15.69222656 -5.875 14.6875 C-5.18645939 12.77417619 -4.49641011 10.86139447 -3.8046875 8.94921875 C-3.35585205 7.67050903 -3.35585205 7.67050903 -2.89794922 6.3659668 C-2 4 -2 4 0 0 Z " fill="#2F2F2F" transform="translate(395,412)"/>
<path d="M0 0 C2.76276177 0.52268466 5.3260876 1.10869587 8 2 C8.11988281 2.6290625 8.23976563 3.258125 8.36328125 3.90625 C8.80846235 6.22848992 8.80846235 6.22848992 11.23046875 7.28125 C12.69419922 7.88453125 12.69419922 7.88453125 14.1875 8.5 C21.64548863 12.0028603 27.29278734 16.99133123 33.35009766 22.50585938 C34.90736647 23.91611169 36.48462574 25.29826775 38.07421875 26.671875 C44.86758048 32.60274145 44.86758048 32.60274145 46 36 C36.76 36 27.52 36 18 36 C13.33022193 27.82788838 8.72834878 19.65971591 4.5 11.25 C4.16226562 10.58355469 3.82453125 9.91710937 3.4765625 9.23046875 C1.97182886 6.20234775 0.60772718 3.3424995 0 0 Z " fill="#2D2D2D" transform="translate(377,218)"/>
<path d="M0 0 C0.495 1.485 0.495 1.485 1 3 C-0.20727539 5.05419922 -0.20727539 5.05419922 -2.03515625 7.4296875 C-6.14074013 13.04184216 -9.29837922 18.93484256 -12.4375 25.125 C-14.273125 28.71375 -16.10875 32.3025 -18 36 C-26.25 36 -34.5 36 -43 36 C-35.84867068 24.08111781 -15.3753865 0 0 0 Z " fill="#252525" transform="translate(267,218)"/>
</svg>
